<?xml version="1.0" standalone="no"?>
<!DOCTYPE svg PUBLIC "-//W3C//DTD SVG 20010904//EN"
 "http://www.w3.org/TR/2001/REC-SVG-20010904/DTD/svg10.dtd">
<svg version="1.0" xmlns="http://www.w3.org/2000/svg"
 width="260.000000pt" height="162.000000pt" viewBox="0 0 260.000000 162.000000"
 preserveAspectRatio="xMidYMid meet">

<g transform="translate(0.000000,162.000000) scale(0.100000,-0.100000)"
fill="#000000" stroke="none">
<path d="M1135 1409 c-268 -34 -546 -179 -739 -387 -54 -57 -54 -62 -3 -125
l22 -27 75 16 c205 44 442 -27 675 -202 39 -28 152 -129 253 -223 105 -98 203
-181 230 -195 92 -46 153 -61 247 -60 81 0 97 3 163 34 149 69 242 224 242
403 -1 187 -132 409 -330 559 -219 166 -534 244 -835 207z m430 -148 c44 -11
125 -43 180 -70 384 -186 550 -577 335 -788 -60 -59 -110 -76 -207 -71 -119 5
-182 39 -323 175 -248 238 -356 322 -519 406 -128 66 -234 97 -361 106 l-94 6
42 34 c123 96 296 178 452 212 120 26 379 21 495 -10z"/>
<path d="M495 835 c-5 -2 -22 -6 -36 -9 -24 -5 -27 -11 -32 -64 -3 -41 -13
-72 -32 -100 -27 -40 -102 -98 -161 -124 -16 -6 -30 -13 -32 -14 -2 -1 4 -28
14 -59 l18 -56 66 8 c36 4 142 8 235 8 149 0 179 -3 242 -23 105 -33 160 -84
172 -162 l6 -35 64 -3 63 -3 -7 48 c-20 133 -97 218 -246 268 -68 23 -214 45
-303 45 l-45 0 35 66 c30 57 34 75 34 140 0 70 -1 74 -22 73 -13 0 -27 -2 -33
-4z"/>
<path d="M712 783 c-25 -10 -34 -53 -17 -79 18 -28 65 -33 85 -9 40 48 -10
111 -68 88z"/>
</g>
</svg>
